<mxfile host="app.diagrams.net" agent="Mozilla/5.0 (Windows NT 10.0; Win64; x64) AppleWebKit/537.36 (KHTML, like Gecko) Chrome/128.0.0.0 Safari/537.36" version="24.7.7">
  <diagram name="Page-1" id="nmDZKC0gI2GxHbr2owm6">
    <mxGraphModel dx="2074" dy="1104" grid="1" gridSize="10" guides="1" tooltips="1" connect="1" arrows="1" fold="1" page="1" pageScale="1" pageWidth="827" pageHeight="1169" math="0" shadow="0">
      <root>
        <mxCell id="0" />
        <mxCell id="1" parent="0" />
        <mxCell id="Xy-J5FgQgD81clwZQD5Q-1" value="PFSENSE Router&lt;div&gt;&lt;br&gt;&lt;/div&gt;" style="sketch=0;points=[[0.5,0,0],[1,0.5,0],[0.5,1,0],[0,0.5,0],[0.145,0.145,0],[0.8555,0.145,0],[0.855,0.8555,0],[0.145,0.855,0]];verticalLabelPosition=bottom;html=1;verticalAlign=top;aspect=fixed;align=center;pointerEvents=1;shape=mxgraph.cisco19.rect;prIcon=router;fillColor=#FAFAFA;strokeColor=#005073;" vertex="1" parent="1">
          <mxGeometry x="354" y="420" width="120" height="120" as="geometry" />
        </mxCell>
        <mxCell id="Xy-J5FgQgD81clwZQD5Q-2" value="SHUFFLE&lt;div&gt;&lt;br&gt;&lt;/div&gt;" style="image;aspect=fixed;perimeter=ellipsePerimeter;html=1;align=center;shadow=0;dashed=0;spacingTop=3;image=img/lib/active_directory/generic_server.svg;" vertex="1" parent="1">
          <mxGeometry x="50" y="260" width="67.2" height="120" as="geometry" />
        </mxCell>
        <mxCell id="Xy-J5FgQgD81clwZQD5Q-4" style="edgeStyle=orthogonalEdgeStyle;rounded=0;orthogonalLoop=1;jettySize=auto;html=1;entryX=0.5;entryY=0;entryDx=0;entryDy=0;shape=link;" edge="1" parent="1" source="Xy-J5FgQgD81clwZQD5Q-3" target="Xy-J5FgQgD81clwZQD5Q-2">
          <mxGeometry relative="1" as="geometry" />
        </mxCell>
        <mxCell id="Xy-J5FgQgD81clwZQD5Q-5" value="&lt;font color=&quot;#ff66ff&quot;&gt;1 . WAZUH ALERT FEEDS TO SHUFFLE&lt;/font&gt;" style="edgeLabel;html=1;align=center;verticalAlign=middle;resizable=0;points=[];" vertex="1" connectable="0" parent="Xy-J5FgQgD81clwZQD5Q-4">
          <mxGeometry x="-0.1683" y="-3" relative="1" as="geometry">
            <mxPoint as="offset" />
          </mxGeometry>
        </mxCell>
        <mxCell id="Xy-J5FgQgD81clwZQD5Q-3" value="WAZUH" style="image;aspect=fixed;perimeter=ellipsePerimeter;html=1;align=center;shadow=0;dashed=0;spacingTop=3;image=img/lib/active_directory/generic_server.svg;" vertex="1" parent="1">
          <mxGeometry x="320" y="60" width="78.4" height="140" as="geometry" />
        </mxCell>
        <mxCell id="Xy-J5FgQgD81clwZQD5Q-6" style="edgeStyle=orthogonalEdgeStyle;rounded=0;orthogonalLoop=1;jettySize=auto;html=1;entryX=0;entryY=0.558;entryDx=0;entryDy=0;entryPerimeter=0;shape=link;" edge="1" parent="1" source="Xy-J5FgQgD81clwZQD5Q-2" target="Xy-J5FgQgD81clwZQD5Q-1">
          <mxGeometry relative="1" as="geometry" />
        </mxCell>
        <mxCell id="Xy-J5FgQgD81clwZQD5Q-7" value="2. SHUFFLE RESPONDS&lt;div&gt;DROPS TRAFFIC FROM HOSTNAME&lt;/div&gt;" style="edgeLabel;html=1;align=center;verticalAlign=middle;resizable=0;points=[];" vertex="1" connectable="0" parent="Xy-J5FgQgD81clwZQD5Q-6">
          <mxGeometry x="0.1213" y="-2" relative="1" as="geometry">
            <mxPoint as="offset" />
          </mxGeometry>
        </mxCell>
        <mxCell id="Xy-J5FgQgD81clwZQD5Q-11" style="edgeStyle=orthogonalEdgeStyle;rounded=0;orthogonalLoop=1;jettySize=auto;html=1;entryX=1;entryY=0.5;entryDx=0;entryDy=0;shape=link;fillColor=#008a00;strokeColor=#005700;dashed=1;dashPattern=8 8;" edge="1" parent="1" source="Xy-J5FgQgD81clwZQD5Q-8" target="Xy-J5FgQgD81clwZQD5Q-3">
          <mxGeometry relative="1" as="geometry">
            <Array as="points">
              <mxPoint x="660" y="855" />
              <mxPoint x="660" y="130" />
            </Array>
          </mxGeometry>
        </mxCell>
        <mxCell id="Xy-J5FgQgD81clwZQD5Q-12" value="COMPROMISED HOST TRIGGERS WAZUH ALERT" style="edgeLabel;html=1;align=center;verticalAlign=middle;resizable=0;points=[];" vertex="1" connectable="0" parent="Xy-J5FgQgD81clwZQD5Q-11">
          <mxGeometry x="0.1509" y="-2" relative="1" as="geometry">
            <mxPoint as="offset" />
          </mxGeometry>
        </mxCell>
        <mxCell id="Xy-J5FgQgD81clwZQD5Q-8" value="COMPROMISED HOST" style="verticalLabelPosition=bottom;html=1;verticalAlign=top;align=center;strokeColor=none;fillColor=#00BEF2;shape=mxgraph.azure.laptop;pointerEvents=1;" vertex="1" parent="1">
          <mxGeometry x="117.2" y="810" width="150" height="90" as="geometry" />
        </mxCell>
        <mxCell id="Xy-J5FgQgD81clwZQD5Q-9" style="edgeStyle=orthogonalEdgeStyle;rounded=0;orthogonalLoop=1;jettySize=auto;html=1;entryX=0.5;entryY=0;entryDx=0;entryDy=0;entryPerimeter=0;shape=link;" edge="1" parent="1" source="Xy-J5FgQgD81clwZQD5Q-1" target="Xy-J5FgQgD81clwZQD5Q-8">
          <mxGeometry relative="1" as="geometry">
            <Array as="points">
              <mxPoint x="414" y="620" />
              <mxPoint x="192" y="620" />
            </Array>
          </mxGeometry>
        </mxCell>
        <mxCell id="Xy-J5FgQgD81clwZQD5Q-10" value="3. TRAFFIC BLOCKED ENDPOINT ISOLATED" style="edgeLabel;html=1;align=center;verticalAlign=middle;resizable=0;points=[];" vertex="1" connectable="0" parent="Xy-J5FgQgD81clwZQD5Q-9">
          <mxGeometry x="-0.1053" y="-5" relative="1" as="geometry">
            <mxPoint as="offset" />
          </mxGeometry>
        </mxCell>
        <mxCell id="Xy-J5FgQgD81clwZQD5Q-13" value="&lt;h1 style=&quot;margin-top: 0px;&quot;&gt;&lt;span style=&quot;background-color: initial;&quot;&gt;Host Automated Containment Process&lt;/span&gt;&lt;/h1&gt;&lt;h1 style=&quot;margin-top: 0px;&quot;&gt;&lt;span style=&quot;background-color: initial; font-size: 12px; font-weight: normal;&quot;&gt;&lt;br&gt;&lt;/span&gt;&lt;/h1&gt;&lt;h1 style=&quot;margin-top: 0px;&quot;&gt;&lt;br&gt;&lt;/h1&gt;" style="text;html=1;whiteSpace=wrap;overflow=hidden;rounded=0;" vertex="1" parent="1">
          <mxGeometry x="10" y="10" width="280" height="70" as="geometry" />
        </mxCell>
      </root>
    </mxGraphModel>
  </diagram>
</mxfile>
